/* XPM */
static char * character_xpm[] = {
"29 32 88 1",
"A	c None",
".	c #071821",
"+	c #5D1118",
"@	c #5E1118",
"#	c #55121A",
"$	c #8D0101",
"%	c #8F0000",
"&	c #81060A",
"*	c #AE8966",
"=	c #CB9F76",
"-	c #624E3E",
";	c #866A50",
">	c #AB8764",
",	c #FFC893",
"'	c #7C624B",
")	c #AA8663",
"!	c #C69B73",
"~	c #9E7D5D",
"{	c #DCAC7F",
"]	c #F2BD8B",
"^	c #F0BD8B",
"/	c #9F7D5D",
"(	c #A98563",
"_	c #EEBA89",
":	c #E9B787",
"<	c #4C2725",
"[	c #41151D",
"}	c #7D5944",
"|	c #F2BE8C",
"1	c #001420",
"2	c #2C2928",
"3	c #7B624B",
"4	c #AA8563",
"5	c #7D634B",
"6	c #CCA076",
"7	c #5A493A",
"8	c #B8906B",
"9	c #E7B585",
"0	c #B38D69",
"a	c #F3C799",
"b	c #D9C5A4",
"c	c #C8AF8F",
"d	c #705A45",
"e	c #A88462",
"f	c #9A795B",
"g	c #755D47",
"h	c #C8AF8E",
"i	c #F8C796",
"j	c #E0C5A1",
"k	c #86C0B9",
"l	c #C2C3AB",
"m	c #AB8664",
"n	c #FCC691",
"o	c #B18B67",
"p	c #C3C3AB",
"q	c #EDC69B",
"r	c #6E5844",
"s	c #94836C",
"t	c #57807C",
"u	c #B4A186",
"v	c #E2B283",
"w	c #FEC792",
"x	c #F6C18E",
"y	c #E4B384",
"z	c #B4A286",
"A	c #9D8469",
"B	c #6D5744",
"C	c #ECB988",
"D	c #81664E",
"E	c #A27F5F",
"F	c #D7A97C",
"G	c #6E5744",
"H	c #2F2B29",
"I	c #101B22",
"J	c #121B22",
"K	c #FCC591",
"L	c #0E1A22",
"M	c #604D3D",
"N	c #3F352F",
"O	c #EFBB8A",
"P	c #DBAC7F",
"Q	c #413730",
"R	c #9D7B5C",
"S	c #7B614B",
"T	c #8F7155",
"U	c #886B51",
"V	c #8D6F54",
"W	c #745C47",
"                             ",
"                             ",
"                             ",
"           ........          ",
"           ..+@@#..          ",
"         ....$%%&....        ",
"        .*=-.$%%&.;=>.       ",
"        .=,'.$%%&.),!.       ",
"      .~{],'.$%%&.),^{/.     ",
"      .(,,,'.$%%&.),,,).     ",
"    ...(,,,_:<[[}:|,,,)...   ",
"    111(,,,,,2113,,,,,4111   ",
"  .5,,,6.=,,,,,,,,,,!.6,,,7. ",
"  .5,,,6.899999999990.6,,,7. ",
"  .5,,,6..............6,,,7. ",
"  .5,abc)d...e))f...g)hbi,7. ",
"  .5,jkl,m...n,,9...o,pkq,7. ",
"   r(stu,v666w,,x666y,ztA(   ",
"    ...(,,,,,,,,,,,,,,)...   ",
"       B333C,D33E,F333G      ",
"        ...9,H..',6...       ",
"      .....IJK,,9JL.....     ",
"      MMMN...O]]P...QMMM     ",
"    .R,,,m..........o,,,S.   ",
"    .R,,,m..........o,,,S.   ",
"    .R,,,m...    ...o,,,S.   ",
"    .T666U...   ....V666W.   ",
"      ..................     ",
"       ................      ",
"        ..............       ",
"        .....    .....       ",
"        .....    .....       "};
