/* XPM */
static char * closed_door_xpm[] = {
"32 32 71 1",
" 	c #86C06C",
".	c #45532B",
"+	c #49582D",
"@	c #3E4C26",
"#	c #252F16",
"$	c #46542B",
"%	c #6B7F43",
"&	c #778D4B",
"*	c #788E4C",
"=	c #677B41",
"-	c #3F4C26",
";	c #5F713B",
">	c #7C934E",
",	c #89A257",
"'	c #89A357",
")	c #8AA357",
"!	c #768D4B",
"~	c #6A7E43",
"{	c #859E55",
"]	c #8AA358",
"^	c #8AA458",
"/	c #48562C",
"(	c #88A157",
"_	c #758B4A",
":	c #46552B",
"<	c #45542B",
"[	c #7C934F",
"}	c #859D54",
"|	c #8EA75B",
"1	c #96B061",
"2	c #8FA85D",
"3	c #788D4E",
"4	c #95AF60",
"5	c #A9C46F",
"6	c #AFCB74",
"7	c #AAC571",
"8	c #8DA75A",
"9	c #9DB766",
"0	c #A3BD6C",
"a	c #A6C16F",
"b	c #819755",
"c	c #687A44",
"d	c #677944",
"e	c #88A156",
"f	c #9AB564",
"g	c #B2CF76",
"h	c #A6C06E",
"i	c #667843",
"j	c #000001",
"k	c #000000",
"l	c #B3CF76",
"m	c #677843",
"n	c #9AB464",
"o	c #ADC873",
"p	c #869B58",
"q	c #59683A",
"r	c #323D20",
"s	c #99B464",
"t	c #B9D67B",
"u	c #ADC973",
"v	c #90A75F",
"w	c #99B363",
"x	c #BFDD80",
"y	c #ACC873",
"z	c #8FA65E",
"A	c #566538",
"B	c #869C59",
"C	c #677943",
"D	c #B8D57B",
"E	c #A5C06E",
"F	c #A9C471",
"                                ",
"        .++++++@##@++++.        ",
"       $%&*&&*&=--=&**&%$       ",
"      .;>,',,),!++!,)',>;.      ",
"     .~>{)]))^)&++&)^]){>~.     ",
"    $;>,',,,,),!++!,),,',>;$    ",
"   .~>{',,,,,),!++!,),,,'{>~.   ",
"   /!,),,,,,,),!++!,),,,,),!/   ",
"   +&'],,,,,,),!++!,),,,,]'&+   ",
"  $;>,',,,,,,'(_::_(',,,,',>;$  ",
" <%[},,,,,,,,),!++!,),,,,,,}[%< ",
" +&,),,,,,,,(|123321|(,,,,,),&+ ",
" +*'],,,,,,(,45677654,(,,,,]'*+ ",
" +&,),,,,,,8490aaaa0948,,,,),&+ ",
" +&,),,,,(,150bcddcb051,(,,),&+ ",
" +&,),,,,e,fghijkkjihgf,e,,),&+ ",
" +&,),,,,e,flamkkkkmalf,e,,),&+ ",
" +&,),,,,e,ngopqrrqpogn,e,,),&+ ",
" +&,),,,,e,sgtuvqqvutgs,e,,),&+ ",
" +&,),,,,e,wgxxhddhxxgw,e,,),&+ ",
" +&,),,,,e,wgxxhddhxxgw,e,,),&+ ",
" +&,),,,,e,sgtyzAAzytgs,e,,),&+ ",
" +&,),,,,e,ngopqrrqpogn,e,,),&+ ",
" +&,),,,,e,fluBcCCcBulf,e,,),&+ ",
" +&,),,,,e,sgDyEEEEyDgs,e,,),&+ ",
" +&,),,,,(,45gl6FF6lg54,(,,),&+ ",
" +&,),,,,,,84nf2332fn48,,,,),&+ ",
" +&,),,,,,,,,),!++!,),,,,,,),&+ ",
" +&,),,,,,,,(,e_::_e,(,,,,,),&+ ",
" +&,),,,,,,,,),!++!,),,,,,,),&+ ",
" +&,),,,,,,,,),!++!,),,,,,,),&+ ",
" +&,),,,,,,,,),!++!,),,,,,,),&+ "};
