/* XPM */
static char * key_xpm[] = {
"32 14 45 1",
"A 	c None",
".	c #8AA358",
"+	c #99B363",
"@	c #9AB564",
"#	c #98B363",
"$	c #8BA458",
"%	c #A9C670",
"&	c #B1CE76",
"*	c #AAC570",
"=	c #8BA559",
"-	c #A3BE6B",
";	c #B2CF76",
">	c #BDDB7E",
",	c #BDDB7F",
"'	c #99B463",
")	c #8BA459",
"!	c #89A257",
"~	c #B3D077",
"{	c #B3CF77",
"]	c #9AB464",
"^	c #B1CE75",
"/	c #B2CF77",
"(	c #B1CD75",
"_	c #B9D77B",
":	c #BAD87C",
"<	c #B5D278",
"[	c #BAD77C",
"}	c #B5D178",
"|	c #BEDC7F",
"1	c #9EB967",
"2	c #8AA458",
"3	c #B4D178",
"4	c #B5D279",
"5	c #A6C26D",
"6	c #A7C26D",
"7	c #A6C26E",
"8	c #A3BF6B",
"9	c #BEDC7E",
"0	c #BEDB7F",
"a	c #9FBA68",
"b	c #A0BB68",
"c	c #B4D177",
"d	c #AAC670",
"e	c #B9D77C",
"f	c #BDDA7E",
"    ....                        ",
"    +@@#                        ",
"  $+%&&*+=                      ",
"  +-;>,;-'                      ",
")+*;    ;*+)!...................",
"@-~>    >{-@]@@@@@@@@@@@@@@@@@@@",
"^{        /&^^^^^^^^^^^^((^^((^^",
",_        _,,,,,,,,,,,>:<<[[<}:,",
"|}12    $13|          |456<<754|",
",~-'    +8~9          03abc3ba30",
"  ;d+..+*;            |e  ee  e|",
"  >;-]]-;f            ||  ||  ||",
"    ~^^~                        ",
"    ,,,,                        "};
