/* XPM */
static char * key_xpm[] = {
"32 32 4 1",
" 	c #86C06C",
".	c #6A6519",
"+	c #ADA51A",
"@	c #ACA419",
"                                ",
"                                ",
"                                ",
"                                ",
"                                ",
"                                ",
"                                ",
"                                ",
"                                ",
"    ....                        ",
"    .++.                        ",
"  ..++++..                      ",
"  .++++++.                      ",
"..@+    ++......................",
".+++    +++++++++++++++++++++++.",
".+        +++++++++++++++++++++.",
".+        +@..........@++++++++.",
".+++    +++.          .++++++++.",
"..++    ++..          .++++++++.",
"  .++++++.            .+  ++  +.",
"  ..@+++..            .+  ++  +.",
"    .++.                        ",
"    ....                        ",
"                                ",
"                                ",
"                                ",
"                                ",
"                                ",
"                                ",
"                                ",
"                                ",
"                                "};
