/* XPM */
static char * porta aberta_xpm[] = {
"30 32 90 1",
" 	c None",
".	c #000000",
"+	c #000100",
"@	c #010402",
"#	c #020805",
"$	c #020905",
"%	c #020A05",
"&	c #040B06",
"*	c #040C06",
"=	c #0C1106",
"-	c #2C361A",
";	c #3F4C26",
">	c #44532A",
",	c #425029",
"'	c #374321",
")	c #1E2813",
"!	c #010805",
"~	c #44522A",
"{	c #3B4824",
"]	c #1D2611",
"^	c #4E5E30",
"/	c #6B7F43",
"(	c #748949",
"_	c #708647",
":	c #5E703B",
"<	c #364321",
"[	c #000103",
"}	c #708547",
"|	c #738949",
"1	c #6D8245",
"2	c #566736",
"3	c #242E16",
"4	c #0F1507",
"5	c #252F16",
"6	c #435229",
"7	c #687C41",
"8	c #819952",
"9	c #89A257",
"0	c #869E55",
"a	c #425028",
"b	c #000002",
"c	c #697C42",
"d	c #262F16",
"e	c #212A13",
"f	c #6B8043",
"g	c #7D944F",
"h	c #87A056",
"i	c #8CA559",
"j	c #88A157",
"k	c #728848",
"l	c #435129",
"m	c #000001",
"n	c #7C934E",
"o	c #4D5D30",
"p	c #222B14",
"q	c #697E42",
"r	c #829952",
"s	c #8AA358",
"t	c #718747",
"u	c #697D42",
"v	c #45532A",
"w	c #2B361A",
"x	c #6A7E43",
"y	c #88A056",
"z	c #576836",
"A	c #313D1E",
"B	c #000101",
"C	c #0D1306",
"D	c #1F2812",
"E	c #829A52",
"F	c #88A156",
"G	c #6C8144",
"H	c #47562C",
"I	c #273218",
"J	c #2C371A",
"K	c #4F5F31",
"L	c #8AA458",
"M	c #8BA458",
"N	c #728748",
"O	c #718748",
"P	c #8AA357",
"Q	c #839B53",
"R	c #869F55",
"S	c #778D4B",
"T	c #859D54",
"U	c #6C8044",
"V	c #64773F",
"W	c #7E9550",
"X	c #768C4B",
"Y	c #667A40",
"      .+@#$$%&**&%$$$         ",
"      .=-;>,')!!)',~,{        ",
"     ..]^/(_:<[[<:}|123..     ",
"    .4567890}abba}098c>d4.    ",
"   ..e^fghijklmmlkjihn/op.    ",
"  .4plqrj9shtlbblths9jruvw    ",
"...5^xgys9shtlbblths9synfzA   ",
"BCD~fEF999shtlbblths999FEGHI  ",
"@JKugjs999shtlbblths999Ljnuz{ ",
"!;f8h99999shtlbblths99999hr1a$",
"$lkFM99999shtlbblths99999MFNl$",
"$lNhs99999shtlbblths99999shOl$",
"$lths99999shtlbblths99999shtl$",
"$lths99999shtlbblths99999shtl$",
"$lths99999shtlbblths99999shtl$",
"$lths99999shtlbblths99999shtl$",
"$lths99999shtlbblths99999shtl$",
"$lths99999shtlbblths99999shtl$",
"$lths99999shtlbblths99999shtl$",
"$lths99999shtlbblths99999shtl$",
"$lths99999shtlbblths99999shtl$",
"$lths999PsMhtlbblthMsP999shtl$",
"$lths99j0Q00NlbblN00Q0j99shtl$",
"$lths9PRSc|8NlbblN8|cSRP9shtl$",
"$lths9sTUKVWk~bb~kWVKUTs9shtl$",
"$lths9PRXYN8NlbblN8NYXRP9shtl$",
"$lths99jTET0NlbblN0TETj99shtl$",
"$lths999PsMhtlbblthMsP999shtl$",
"$lths99999LhtlbblthL99999shtl$",
"$lths99999shtlbblths99999shtl$",
"$lths99999shtlbblths99999shtl$",
"$lths99999shtlbblths99999shtl$"};
