/* XPM */
static char * porta fechada_xpm[] = {
"32 32 73 1",
" 	c None",
".	c #040C06",
"+	c #45532B",
"@	c #49582D",
"#	c #3E4C26",
"$	c #252F16",
"%	c #46542B",
"&	c #6B7F43",
"*	c #778D4B",
"=	c #788E4C",
"-	c #677B41",
";	c #3F4C26",
">	c #5F713B",
",	c #7C934E",
"'	c #89A257",
")	c #89A357",
"!	c #8AA357",
"~	c #768D4B",
"{	c #6A7E43",
"]	c #859E55",
"^	c #8AA358",
"/	c #8AA458",
"(	c #000003",
"_	c #48562C",
":	c #88A157",
"<	c #758B4A",
"[	c #46552B",
"}	c #45542B",
"|	c #7C934F",
"1	c #859D54",
"2	c #8EA75B",
"3	c #96B061",
"4	c #8FA85D",
"5	c #788D4E",
"6	c #95AF60",
"7	c #A9C46F",
"8	c #AFCB74",
"9	c #AAC571",
"0	c #8DA75A",
"a	c #9DB766",
"b	c #A3BD6C",
"c	c #A6C16F",
"d	c #819755",
"e	c #687A44",
"f	c #677944",
"g	c #88A156",
"h	c #9AB564",
"i	c #B2CF76",
"j	c #A6C06E",
"k	c #667843",
"l	c #000001",
"m	c #000000",
"n	c #B3CF76",
"o	c #677843",
"p	c #9AB464",
"q	c #ADC873",
"r	c #869B58",
"s	c #59683A",
"t	c #323D20",
"u	c #99B464",
"v	c #B9D67B",
"w	c #ADC973",
"x	c #90A75F",
"y	c #99B363",
"z	c #BFDD80",
"A	c #ACC873",
"B	c #8FA65E",
"C	c #566538",
"D	c #869C59",
"E	c #677943",
"F	c #B8D57B",
"G	c #A5C06E",
"H	c #A9C471",
"        ................        ",
"        +@@@@@@#$$#@@@@+        ",
"      .%&*=**=*-;;-*==*&%.      ",
"      +>,')''!'~@@~'!)',>+      ",
"    .+{,]!^!!/!*@@*!/^!],{+.    ",
"    %>,')''''!'~@@~'!'')',>%    ",
"  .+{,])'''''!'~@@~'!''')],{+.  ",
"  (_~'!''''''!'~@@~'!''''!'~_(  ",
"  .@*)^''''''!'~@@~'!''''^)*@.  ",
"  %>,')''''''):<[[<:)'''')',>%  ",
".}&|1''''''''!'~@@~'!''''''1|&}.",
".@*'!''''''':23455432:'''''!'*@.",
".@=)^'''''':'67899876':''''^)=@.",
".@*'!''''''06abccccba60''''!'*@.",
".@*'!'''':'37bdeffedb73':''!'*@.",
".@*'!''''g'hijklmmlkjih'g''!'*@.",
".@*'!''''g'hncommmmocnh'g''!'*@.",
".@*'!''''g'piqrsttsrqip'g''!'*@.",
".@*'!''''g'uivwxssxwviu'g''!'*@.",
".@*'!''''g'yizzjffjzziy'g''!'*@.",
".@*'!''''g'yizzjffjzziy'g''!'*@.",
".@*'!''''g'uivABCCBAviu'g''!'*@.",
".@*'!''''g'piqrsttsrqip'g''!'*@.",
".@*'!''''g'hnwDeEEeDwnh'g''!'*@.",
".@*'!''''g'uiFAGGGGAFiu'g''!'*@.",
".@*'!'''':'67in8HH8ni76':''!'*@.",
".@*'!''''''06ph4554hp60''''!'*@.",
".@*'!''''''''!'~@@~'!''''''!'*@.",
".@*'!''''''':'g<[[<g':'''''!'*@.",
".@*'!''''''''!'~@@~'!''''''!'*@.",
".@*'!''''''''!'~@@~'!''''''!'*@.",
".@*'!''''''''!'~@@~'!''''''!'*@."};
