/* XPM */
static char * test_xpm[] = {
"32 32 381 2",
"  	c #796755",
". 	c #7F6C57",
"+ 	c #967E5F",
"@ 	c #857054",
"# 	c #5B4D3F",
"$ 	c #887255",
"% 	c #A08662",
"& 	c #A18763",
"* 	c #907959",
"= 	c #5A4D3F",
"- 	c #4C423B",
"; 	c #605347",
"> 	c #756352",
", 	c #8D775C",
"' 	c #9E8561",
") 	c #A18762",
"! 	c #977F5D",
"~ 	c #675744",
"{ 	c #6F5E49",
"] 	c #9B825F",
"^ 	c #9E8461",
"/ 	c #8C765B",
"( 	c #7C6956",
"_ 	c #89745A",
": 	c #78654F",
"< 	c #55493D",
"[ 	c #7B6851",
"} 	c #9F8562",
"| 	c #988060",
"1 	c #826E55",
"2 	c #615347",
"3 	c #746352",
"4 	c #847059",
"5 	c #8E785C",
"6 	c #8F785C",
"7 	c #90795D",
"8 	c #887258",
"9 	c #5F5142",
"0 	c #665746",
"a 	c #8B755A",
"b 	c #90795C",
"c 	c #957D5E",
"d 	c #9C8361",
"e 	c #836F58",
"f 	c #776554",
"g 	c #7A6856",
"h 	c #69594B",
"i 	c #4E433B",
"j 	c #655648",
"k 	c #826E56",
"l 	c #977F5F",
"m 	c #9B8260",
"n 	c #99805F",
"o 	c #867158",
"p 	c #6A5A4B",
"q 	c #4D423A",
"r 	c #4E433C",
"s 	c #615348",
"t 	c #7A6855",
"u 	c #7B6956",
"v 	c #756452",
"w 	c #564A3F",
"x 	c #594C41",
"y 	c #736251",
"z 	c #867159",
"A 	c #987F5F",
"B 	c #927B5D",
"C 	c #6C5D4E",
"D 	c #786654",
"E 	c #68584A",
"F 	c #493F38",
"G 	c #4B4139",
"H 	c #655647",
"I 	c #7F6B56",
"J 	c #816D57",
"K 	c #6A5A4A",
"L 	c #453C36",
"M 	c #4E443C",
"N 	c #786755",
"O 	c #56493F",
"P 	c #625448",
"Q 	c #726151",
"R 	c #826E58",
"S 	c #806C57",
"T 	c #5D5045",
"U 	c #625447",
"V 	c #635447",
"W 	c #574A40",
"X 	c #433A35",
"Y 	c #473E38",
"Z 	c #594C42",
"` 	c #695A4C",
" .	c #6C5C4E",
"..	c #6A5B4D",
"+.	c #54493F",
"@.	c #3D3532",
"#.	c #3E3633",
"$.	c #483E38",
"%.	c #564B41",
"&.	c #68594B",
"*.	c #6D5D4E",
"=.	c #6A5A4C",
"-.	c #615346",
";.	c #4B413A",
">.	c #423A35",
",.	c #4F453D",
"'.	c #645549",
").	c #584C41",
"!.	c #5A4C3E",
"~.	c #584B3E",
"{.	c #574B40",
"].	c #564B42",
"^.	c #584C42",
"/.	c #584C43",
"(.	c #584C40",
"_.	c #594B3E",
":.	c #584B3D",
"<.	c #4E4239",
"[.	c #544940",
"}.	c #594D43",
"|.	c #50453D",
"1.	c #493E37",
"2.	c #53473B",
"3.	c #594C3E",
"4.	c #6E5D49",
"5.	c #8D7658",
"6.	c #91795A",
"7.	c #8B7457",
"8.	c #675745",
"9.	c #78654D",
"0.	c #8E7758",
"a.	c #705E48",
"b.	c #463C36",
"c.	c #463D37",
"d.	c #483F38",
"e.	c #51453A",
"f.	c #806B51",
"g.	c #927A5A",
"h.	c #8B7557",
"i.	c #A28763",
"j.	c #867154",
"k.	c #76634C",
"l.	c #73614A",
"m.	c #74614A",
"n.	c #A28863",
"o.	c #846F55",
"p.	c #5D4F43",
"q.	c #463C37",
"r.	c #4D4239",
"s.	c #6C5B47",
"t.	c #76634B",
"u.	c #7C684F",
"v.	c #967E5D",
"w.	c #877154",
"x.	c #4D4238",
"y.	c #655643",
"z.	c #77644C",
"A.	c #9D8361",
"B.	c #99815F",
"C.	c #947C5C",
"D.	c #645443",
"E.	c #917A5B",
"F.	c #8A755A",
"G.	c #5F5247",
"H.	c #4B423B",
"I.	c #8A7457",
"J.	c #9C8260",
"K.	c #9D8460",
"L.	c #9C8360",
"M.	c #836E53",
"N.	c #7F6B51",
"O.	c #98805E",
"P.	c #937B5E",
"Q.	c #A18662",
"R.	c #8F795C",
"S.	c #86725A",
"T.	c #836E57",
"U.	c #625344",
"V.	c #5B4E41",
"W.	c #806C56",
"X.	c #857159",
"Y.	c #857059",
"Z.	c #615448",
"`.	c #4D433C",
" +	c #52463C",
".+	c #7A6752",
"++	c #937C5E",
"@+	c #74624F",
"#+	c #71604D",
"$+	c #867259",
"%+	c #7D6A53",
"&+	c #917A5D",
"*+	c #937B5D",
"=+	c #756453",
"-+	c #54483F",
";+	c #786655",
">+	c #4A4039",
",+	c #605245",
"'+	c #7C6953",
")+	c #786551",
"!+	c #5B4E43",
"~+	c #776654",
"{+	c #68594C",
"]+	c #7B6856",
"^+	c #716050",
"/+	c #5E5146",
"(+	c #54483E",
"_+	c #705F4F",
":+	c #776553",
"<+	c #7A6755",
"[+	c #5B4E42",
"}+	c #443B35",
"|+	c #67584A",
"1+	c #67594B",
"2+	c #706050",
"3+	c #5C4F45",
"4+	c #483E37",
"5+	c #6D5D4D",
"6+	c #705F50",
"7+	c #423934",
"8+	c #413833",
"9+	c #52463E",
"0+	c #635549",
"a+	c #64564A",
"b+	c #473D37",
"c+	c #53483F",
"d+	c #5F5246",
"e+	c #65574A",
"f+	c #645649",
"g+	c #6F5F50",
"h+	c #67584B",
"i+	c #554940",
"j+	c #5E5044",
"k+	c #5E5045",
"l+	c #51463E",
"m+	c #574B41",
"n+	c #50463E",
"o+	c #52473E",
"p+	c #584B41",
"q+	c #5B4F44",
"r+	c #493F39",
"s+	c #554A41",
"t+	c #4D433B",
"u+	c #665749",
"v+	c #51453C",
"w+	c #6B5B4C",
"x+	c #453B36",
"y+	c #574C42",
"z+	c #52473F",
"A+	c #6A5B4C",
"B+	c #6C5C4D",
"C+	c #766453",
"D+	c #6F5F4F",
"E+	c #403834",
"F+	c #3F3633",
"G+	c #453C37",
"H+	c #5B4E44",
"I+	c #605247",
"J+	c #716151",
"K+	c #544840",
"L+	c #443B36",
"M+	c #574B42",
"N+	c #4F443A",
"O+	c #4E4339",
"P+	c #4C4138",
"Q+	c #584D43",
"R+	c #493F37",
"S+	c #50443A",
"T+	c #4F4339",
"U+	c #51453B",
"V+	c #4A403A",
"W+	c #4C423A",
"X+	c #635444",
"Y+	c #897356",
"Z+	c #433A36",
"`+	c #453B35",
" @	c #6A5945",
".@	c #867054",
"+@	c #72604A",
"@@	c #473E39",
"#@	c #836E52",
"$@	c #695946",
"%@	c #6C5A46",
"&@	c #6B5A46",
"*@	c #5D4F40",
"=@	c #4B4037",
"-@	c #5E4F40",
";@	c #947C5B",
">@	c #635342",
",@	c #4A4037",
"'@	c #816D53",
")@	c #6A5946",
"!@	c #685845",
"~@	c #6A5A46",
"{@	c #977F5E",
"]@	c #7E6A50",
"^@	c #584A3D",
"/@	c #816D52",
"(@	c #9A815F",
"_@	c #99805E",
":@	c #887256",
"<@	c #4B413B",
"[@	c #90795A",
"}@	c #635443",
"|@	c #937B5B",
"1@	c #987F5E",
"2@	c #846F56",
"3@	c #8B755B",
"4@	c #75634E",
"5@	c #54483D",
"6@	c #796650",
"7@	c #947C5E",
"8@	c #7F6B54",
"9@	c #8A745A",
"0@	c #857057",
"a@	c #5E5042",
"b@	c #655545",
"c@	c #887359",
"d@	c #68594A",
"e@	c #605246",
"f@	c #7D6A54",
"g@	c #937C5D",
"h@	c #816D56",
"i@	c #4C4139",
"j@	c #564A40",
"k@	c #846F58",
"l@	c #87725A",
"m@	c #766554",
"n@	c #605244",
"o@	c #7A6754",
"p@	c #7E6B56",
"q@	c #7C6955",
"r@	c #4A3F38",
"s@	c #55493F",
"t@	c #7E6B57",
"u@	c #7F6B57",
"v@	c #7C6A56",
"w@	c #4F443C",
"x@	c #65564A",
"y@	c #66584B",
"z@	c #53473E",
"A@	c #403733",
"B@	c #473E37",
"C@	c #5C4F43",
"D@	c #50453C",
"E@	c #6E5E4E",
"F@	c #4B4039",
"G@	c #726251",
"H@	c #736252",
"I@	c #4C413A",
"J@	c #645548",
"K@	c #433A34",
"L@	c #5D5044",
"M@	c #655649",
"N@	c #635548",
"O@	c #4F443D",
"P@	c #4D423B",
"Q@	c #5A4E44",
"R@	c #534840",
"S@	c #413934",
"T@	c #5A4D43",
"U@	c #4A4038",
"V@	c #473D36",
"W@	c #594E44",
"X@	c #463D36",
"Y@	c #564A41",
"Z@	c #655645",
"`@	c #7A664E",
" #	c #615243",
".#	c #51463D",
"+#	c #6C5B48",
"@#	c #7E6950",
"##	c #715F49",
"$#	c #7F6B50",
"%#	c #7A674E",
"&#	c #75634B",
"*#	c #433934",
"=#	c #4B4038",
"-#	c #826D52",
";#	c #55483C",
">#	c #8C7657",
"  . + @ # $ % % % % % & * = - ; > , ' % ) ! ~ { ] % % % % % ^ / ",
"  ( _ : < [ + } ) ) % | 1 < - 2 3 4 5 6 7 8 9 0 a b c } ) d b e ",
"f   g h i j k l m m n o p q r s 3 g t t u v w x y   z A m B .   ",
"C D   E F G H I e e J K i L M 2 3   N N   y O i P Q ( R e S t   ",
"T U V W X Y Z `  . ...+.@.#.$.%.&.*.*.*.=.-.;.>.,.'.*. . . .*.*.",
").= # !.~.{.].^././.^.(._.:.<.$.[.}./.^.|.1.2._.3.)././././././.",
"4.5.* 6.7.8.$.F F Y i 9.* 0.a.b.c.F d.F X e.f.g.7.8.Y d.F F F F ",
"h.} i.i.^ j.k.l._.2.m.g.n.% o.p.|.q.r.s.t.u.v.n.^ w.~ x.y.k.k.z.",
"A.% % % } m B.C.s.D.E.m d m F.y G.H.~.I.J.K.} % } L.M.~.N.n n O.",
"P.} % Q.^ R.S.T.U.V.W.S.X.Y.S 3 Z.`. +.+++% Q.% ^ 7 @+ +#+$+X.%+",
"Y.&+*+*+b R =+ .-+O 3   ;+;+  3 Z.M >+,+'+&+++++6 )+!+G E   ~+{+",
"]+( ( ( ( t ^+/+;.(+_+D     D ^+/+`.X b.,+:+<+t v [+}+>+|+f =+1+",
"            2+3+;.4+W 5+    6+2 |.b.7+8+9+0+a+a+Z.i b+c+d+e+f+G.",
"6+g+g+g+g+6+h+i+$.}+;.j+h &.k+l+- c.b+O m+l+n+n+o+p+).c+o+o+l+l+",
"q+q+q+q+q+q+[.b+7+r+s+l+>+>+$.;.s+r t+=.u+i >+>+v+w+p q }+x+b+F ",
">+>+>+>+>+>+Y 7+8+>+y+%.z+z+z+[.}.,.>+d+` w+w+A+B+C+D+m+Y c.z+U ",
";.;.;.;.;.;.Y E+F+G+l+^.H+H+q+}.[.>+X `.I+g+J+^+^+^+1+K+G+L+l+e+",
"M+M+M+M+M+M+-+N+O+P+b+l+Q+}.}.s+r+R+O+S+w q+3+3+3+3+^. +T+T+U+m+",
"V+V+V+;.W+V+X+M.Y+9.r.Z+V+;.W+r+`+ @.@$ +@i r+V+r+@@X+#@$ $ @ $@",
"%@&@&@*@=@-@f.L.n.;@l. @>@,@L W+W '@} & 0.)@T+2.!@~@f.L.& & ' @ ",
"{@! {@]@^@/@] } % ^ (@_@:@^@<@/+^+a A.' L.[@}@&@|@1@(@} % % % L.",
"2@3@/ 4@5@6@7@} ) ) Q.l 8@5@`.Z.=+R _ 9@/ 0@a@b@c@/ *+} ) ) % + ",
"` D t d@q e@f@g@l l c h@j i@M Z.3 t     g 3 w j@_+f k@7@l l c l@",
"{+m@;+E F b+n@o@p@p@q@H r@}+M I+y         Q s@- ; J+u t@. . u@v@",
"Z.{+` 2 o+L+w@x@{+{+y@z@A@7+B@c+f+Q   t D+C@>+;.3+^+<+        g ",
"i+i+s+i+i+-+-+[.[.[.[.s@D@b.L ;.c+P E@E@-.F@X r+M+A+y G@G@G@G@H@",
"$.b+c.L q |+E i $.$.I@J@&.q t+K+;.>+i i o+[.F K@F ^.G.d+d+d+d+d+",
"L@|.b.c.i+D+3 |+j j M@` N@G ,.Q+z+O@O@O@i+^.>+8+K@r+P@P@P@P@P@P@",
"1+[.c.$.m+..H@y y H@J+0+l+L - %.}.Q@Q@Q@Q+R@Y A@S@c.F F F F F F ",
"^.i@4+4+q T@; ; ; ; d+s@U@V@b.;.%.Q@Q@W@z+$.X@b.4+l+Y@Y@Y@Y@Y@%.",
"Z@u.]@]@`@ #`.r r `..#+#@#u.D.b.- O@w@w@$.x.##$#%#U.M ,.,.,.,.,.",
"&#L.% % _@s.E+7+*#E+=#-#} K.`@`+S@*#*#*#F+;#>#& _@s.E+7+*#*#*#*#"};
