/* XPM */
static char * wall_xpm[] = {
"32 31 15 1",
" 	c #528658",
".	c #528758",
"+	c #4A7F56",
"@	c #3B7152",
"#	c #77AE66",
"$	c #77AF66",
"%	c #699F60",
"&	c #4B7F56",
"*	c #86C06C",
"=	c #87C16C",
"-	c #76AE65",
";	c #699E60",
">	c #4A7E56",
",	c #306850",
"'	c #2E6750",
"   . +@@+ .        . +@@+ .     ",
"###$#%&&%#$########$#%&&%#$#####",
"***=*-  -*=********=*-  -*=*****",
"=====#..#============#..#=======",
"=====#..#============#..#=======",
"***=*-  -*=********=*-  -*=*****",
"---#-;>>;-#---##---#-;>>;-#---##",
"   . +@@+ .        . +@@+ .     ",
"           . +@@+ .        . &@,",
"------##---#-;>>;-#---##---#-%>'",
"***********=*-  -*=********=*# ,",
"=============#..#============$.,",
"=============#..#============$.,",
"***********=*-  -*=********=*# ,",
"------##---#-;>>;-#---##---#-%>'",
"           . +@@+ .        . &@,",
"   . +@@+ .        . +@@+ .     ",
"---#-;>>;-#---##---#-;>>;-#---##",
"***=*-  -*=********=*-  -*=*****",
"=====#..#============#..#=======",
"=====#..#============#..#=======",
"***=*-  -*=********=*-  -*=*****",
"---#-;>>;-#---##---#-;>>;-#---##",
"   . +@@+ .        . +@@+ .     ",
"           . +@@+ .        . &@,",
"------##---#-;>>;-#---##---#-%>'",
"***********=*-  -*=********=*# ,",
"=============#..#============$.,",
"***********=*-  -*=********=*# ,",
"***********=*-  -*=********=*# ,",
"***********=*-  -*=********=*# ,"};
